<?xml version="1.0" encoding="UTF-8"?><svg id="Camada_2" xmlns="http://www.w3.org/2000/svg" viewBox="0 0 865.38 159.72"><defs><style>.cls-1{fill:#090f11;stroke-width:0px;}</style></defs><g id="Camada_1-2"><path class="cls-1" d="M812.63,19.7c-1.57-1.34-3.99-.22-3.99,1.84v23.02c0,.85.45,1.65,1.19,2.08l25.69,15.23c.76.45,1.71.45,2.47,0l11.38-6.75c1.43-.85,1.6-2.85.33-3.92l-37.06-31.5ZM830.59,26.85c.77.65,1.85.76,2.73.27l22.15-12.22c1.64-.9,1.67-3.25.07-4.2l-17.49-10.37c-.76-.45-1.71-.45-2.47,0l-18.4,10.91c-1.43.85-1.6,2.85-.33,3.92l13.74,11.68ZM861.8,18.52l-21.8,12.02c-1.48.82-1.69,2.87-.4,3.96l16.98,14.42c.79.67,1.91.76,2.79.24l4.82-2.84c.74-.43,1.19-1.23,1.19-2.08v-23.6c0-1.84-1.97-3.01-3.59-2.12Z"/><path class="cls-1" d="M345.77,41.48h-23.51v89.2h.04l.15,5.09c.02.57.25,5.75,3.23,11.02,2.9,5.14,8.89,11.27,20.92,11.27h46.17v-21.16h-47V41.48Z"/><rect class="cls-1" x="649.77" y="41.49" width="23.51" height="116.58"/><path class="cls-1" d="M743.57,138.45c-20.57,0-35.13-17.69-35.13-38.66s14.56-38.66,35.13-38.66c11.28,0,21.79,5.42,28.64,13.52l15.87-13.95c-10.78-12.75-26.74-20.84-44.51-20.84-32.4,0-58.77,26.89-58.77,59.94s26.36,59.94,58.77,59.94c17.75,0,33.69-8.07,44.48-20.8l-15.87-13.95c-6.84,8.08-17.35,13.48-28.61,13.48Z"/><path class="cls-1" d="M23.38,158.07H0L15.15,63.01c.08-.52.91-5.45,4.04-10.48,4.48-7.21,11.3-11.02,19.72-11.02h54.33v20.98h-54.74l-4.24,26.8h39.72v20.98H30.94l-7.56,47.79Z"/><path class="cls-1" d="M150.77,159.69c-33.03,0-59.91-26.88-59.91-59.91s26.88-59.91,59.91-59.91,59.91,26.88,59.91,59.91-26.88,59.91-59.91,59.91ZM150.77,61.17c-20.97,0-36.29,17.64-36.29,38.61s15.33,38.66,36.29,38.66,36.29-17.66,36.29-38.63-15.33-38.63-36.29-38.63Z"/><path class="cls-1" d="M451.02,159.69c-33.03,0-59.9-26.87-59.9-59.9s26.87-59.9,59.9-59.9,59.9,26.87,59.9,59.9-26.87,59.9-59.9,59.9ZM451.02,61.19c-20.96,0-36.29,17.64-36.29,38.6s15.32,38.65,36.29,38.65,36.29-17.66,36.29-38.62-15.32-38.62-36.29-38.62Z"/><path class="cls-1" d="M638.29,99.99l-.05-10.77h-46.96v21.22h24.61c-1.37,6.17-3.95,11.33-7.87,15.96-6.84,8.08-17.23,12.05-28.49,12.05-20.56,0-35.13-17.69-35.13-38.67s14.57-38.62,35.13-38.62c11.28,0,21.89,5.29,28.73,13.39l16.01-13.8c-10.78-12.75-26.98-20.89-44.75-20.89-32.4,0-58.76,26.88-58.76,59.93s26.36,59.93,58.76,59.93c17.75,0,33.69-8.07,44.47-20.8,7.2-8.5,12.1-19.07,13.71-30.7h0s.58-4.31.58-8.22Z"/><path class="cls-1" d="M252.57,41.48c-8.45,0-15.29,3.88-19.78,11.11-3.14,5.05-3.97,9.99-4.05,10.51l-15.19,94.96h23.45l7.58-47.93,3.33-21.05,4.35-26.6h23.22c1.07.01,3.13.28,5.96,2.01,2.08,1.27,5.87,5.27,5.87,11.22s-3.69,10.28-5.93,11.52c-2.85,1.58-3.9,1.75-5.18,1.99l-1.73.05c-5.16,0-17.79.02-17.79.02l30.66,68.76h23.38l-21.41-47.98s-.03,0,0,0l-.7-1.6c1.74-.6,3.66-1.39,5.51-2.41,10.65-5.87,16.51-16.73,16.51-30.56s-5.2-20.62-9.57-24.89c-9.08-8.87-20.98-9.16-23.01-9.14h-25.49Z"/></g></svg>